<svg width="131" height="24" viewBox="0 0 131 24" fill="none" xmlns="http://www.w3.org/2000/svg">
<path d="M10.501 0.150391C13.264 0.150441 15.8626 1.27289 17.8184 3.31445C19.596 5.1702 20.646 7.58206 20.8232 10.1758H20.1895C16.5684 10.1758 13.1544 11.6368 10.5762 14.2861C10.4249 14.4418 10.2774 14.6009 10.1338 14.7627C10.099 14.7261 10.0648 14.6887 10.0293 14.6523C7.54505 12.1011 4.25479 10.6943 0.766602 10.6943H0.155273C0.219448 7.90443 1.28782 5.29344 3.18359 3.31445C5.13935 1.27285 7.73792 0.150391 10.501 0.150391ZM10.5234 3.15039C8.81581 3.15039 7.4376 4.59871 7.4375 6.36523C7.4375 8.13184 8.81574 9.58008 10.5234 9.58008C12.2311 9.58004 13.6094 8.13182 13.6094 6.36523C13.6093 4.59874 12.231 3.15043 10.5234 3.15039Z" fill="#F5F2E7" stroke="#F5F2E7" stroke-width="0.3"/>
<path d="M20.8536 20.9639V22.585C20.8536 23.2881 20.3067 23.8496 19.6486 23.8497H13.9572C13.9155 22.865 13.7745 21.899 13.5402 20.9639H20.8536Z" fill="#F5F2E7" stroke="#F5F2E7" stroke-width="0.3"/>
<path d="M20.8538 16.5963V20.192H13.3225C12.9237 18.9144 12.3459 17.7048 11.6028 16.5963H20.8538Z" fill="#F5F2E7" stroke="#F5F2E7" stroke-width="0.3"/>
<path d="M20.1906 10.948H20.8536V15.824H11.047C10.9175 15.657 10.7835 15.4933 10.6456 15.3318C10.7954 15.1617 10.9488 14.9942 11.1075 14.8308L11.1085 14.8318C13.5463 12.3262 16.7717 10.948 20.1906 10.948Z" fill="#F5F2E7" stroke="#F5F2E7" stroke-width="0.3"/>
<path d="M0.767578 11.4667C2.65518 11.4667 4.48061 11.9034 6.13672 12.7313L0.150391 18.9803V11.4667H0.767578Z" fill="#F5F2E7" stroke="#F5F2E7" stroke-width="0.3"/>
<path d="M10.8325 16.8142C12.2636 18.8573 13.0886 21.2855 13.2036 23.8504H4.09229L7.32373 20.4783L10.8325 16.8142Z" fill="#F5F2E7" stroke="#F5F2E7" stroke-width="0.3"/>
<path d="M6.79785 13.0891C7.77293 13.654 8.68159 14.3601 9.49805 15.1984C9.57674 15.2792 9.65388 15.3604 9.72949 15.4426C9.83384 15.5552 9.9361 15.6693 10.0361 15.7853C10.1547 15.9231 10.2687 16.0641 10.3809 16.2062L3.06055 23.8498H1.35547C0.697231 23.8498 0.150391 23.2883 0.150391 22.5851V20.0285L6.79785 13.0891Z" fill="#F5F2E7" stroke="#F5F2E7" stroke-width="0.3"/>
<path d="M10.5247 2.84674C12.3833 2.84692 13.8956 4.42504 13.8958 6.3653C13.8957 8.30561 12.3834 9.88465 10.5247 9.88483C8.66588 9.88475 7.15265 8.30567 7.15259 6.3653C7.15272 4.42498 8.66592 2.84682 10.5247 2.84674ZM10.5247 3.38776C8.9517 3.38783 7.67225 4.72331 7.67212 6.3653C7.67218 8.00735 8.95166 9.34373 10.5247 9.34381C12.0976 9.34363 13.3771 8.00674 13.3772 6.3653C13.3771 4.72391 12.0975 3.38794 10.5247 3.38776Z" fill="#F5F2E7"/>
<path d="M131 21.6769H126.798V2H131V21.6769Z" fill="#F5F2E7"/>
<path d="M124.708 21.6769H120.506V2H124.708V21.6769Z" fill="#F5F2E7"/>
<path d="M109.294 22C107.06 22 105.503 20.7959 105.503 18.4758C105.503 16.3025 106.884 15.0397 109.617 14.0999L114.024 12.4552C113.877 11.2511 113.319 10.5756 111.732 10.5756C109.911 10.5756 108.236 11.6035 107.237 13.0426L105.121 9.98827C106.561 8.43174 108.941 6.99268 112.026 6.99268C115.67 6.99268 117.785 8.931 117.785 12.5433V17.4773C117.785 18.1234 118.021 18.3289 118.549 18.3289H119.402V21.677H116.933C115.376 21.677 113.966 20.9721 113.966 18.9163V17.9472C113.495 19.8267 112.232 22 109.294 22ZM109.382 17.859C109.382 18.5345 109.852 18.9163 110.851 18.9163C112.849 18.9163 113.966 17.9178 113.966 16.1557V15.1571L110.91 16.42C109.764 16.8899 109.382 17.301 109.382 17.859Z" fill="#F5F2E7"/>
<path d="M95.5258 22C92.0291 22 89.8253 19.2687 89.8253 14.4816C89.8253 9.72394 92.0291 6.99266 95.3495 6.99266C98.3466 6.99266 99.522 9.07783 99.9334 11.3979V2H104.135V21.6769H99.9334V17.6241C99.5514 19.9442 98.523 22 95.5258 22ZM94.086 14.4816C94.086 17.2423 95.2907 18.7107 97.2007 18.7107C98.9637 18.7107 99.9334 17.6241 99.9334 15.2746V13.7181C99.9334 11.3686 98.9343 10.2526 97.1419 10.2526C95.2907 10.2526 94.086 11.7504 94.086 14.4816Z" fill="#F5F2E7"/>
<path d="M71.0235 21.677H66.8216V7.28636H71.0235V11.4273C71.4643 9.07784 72.7571 6.99268 75.7249 6.99268C78.3695 6.99268 79.8387 8.66668 79.8387 11.4567C80.2794 9.07784 81.5723 6.99268 84.5401 6.99268C87.1846 6.99268 88.6538 8.66668 88.6538 11.6329V21.677H84.4519V13.1013C84.4519 11.2218 83.8643 10.2526 82.16 10.2526C80.4851 10.2526 79.8387 11.3686 79.8387 13.7181V21.677H75.6368V13.1013C75.6368 11.2218 75.0491 10.2526 73.3448 10.2526C71.6699 10.2526 71.0235 11.3686 71.0235 13.7181V21.677Z" fill="#F5F2E7"/>
<path d="M64.7312 5.58297H60.5293V2H64.7312V5.58297ZM64.7312 21.6769H60.5293V7.28634H64.7312V21.6769Z" fill="#F5F2E7"/>
<path d="M49.317 22C47.0839 22 45.5265 20.7959 45.5265 18.4758C45.5265 16.3025 46.9076 15.0397 49.6403 14.0999L54.0479 12.4552C53.9009 11.2511 53.3426 10.5756 51.7559 10.5756C49.9341 10.5756 48.2592 11.6035 47.2602 13.0426L45.1445 9.98827C46.5843 8.43174 48.9644 6.99268 52.0498 6.99268C55.6934 6.99268 57.809 8.931 57.809 12.5433V17.4773C57.809 18.1234 58.0441 18.3289 58.573 18.3289H59.4251V21.677H56.9569C55.3995 21.677 53.9891 20.9721 53.9891 18.9163V17.9472C53.5189 19.8267 52.2554 22 49.317 22ZM49.4052 17.859C49.4052 18.5345 49.8753 18.9163 50.8744 18.9163C52.8725 18.9163 53.9891 17.9178 53.9891 16.1557V15.1571L50.9332 16.42C49.7872 16.8899 49.4052 17.301 49.4052 17.859Z" fill="#F5F2E7"/>
<path d="M31.2019 21.6769H27V2H31.2019V9.87078H39.6057V2H43.8076V21.6769H39.6057V13.6006H31.2019V21.6769Z" fill="#F5F2E7"/>
</svg>
